
<svg id="visual" viewBox="0 0 900 600" width="900" height="600" xmlns="http://www.w3.org/2000/svg" xmlns:xlink="http://www.w3.org/1999/xlink" version="1.1"><rect x="0" y="0" width="900" height="600" fill="#0e153a"></rect><defs><linearGradient id="grad1_0" x1="33.3%" y1="0%" x2="100%" y2="100%"><stop offset="20%" stop-color="#3d5af1" stop-opacity="1"></stop><stop offset="80%" stop-color="#3d5af1" stop-opacity="1"></stop></linearGradient></defs><defs><linearGradient id="grad1_1" x1="33.3%" y1="0%" x2="100%" y2="100%"><stop offset="20%" stop-color="#3d5af1" stop-opacity="1"></stop><stop offset="80%" stop-color="#213691" stop-opacity="1"></stop></linearGradient></defs><defs><linearGradient id="grad1_2" x1="33.3%" y1="0%" x2="100%" y2="100%"><stop offset="20%" stop-color="#0e153a" stop-opacity="1"></stop><stop offset="80%" stop-color="#213691" stop-opacity="1"></stop></linearGradient></defs><defs><linearGradient id="grad2_0" x1="0%" y1="0%" x2="66.7%" y2="100%"><stop offset="20%" stop-color="#3d5af1" stop-opacity="1"></stop><stop offset="80%" stop-color="#3d5af1" stop-opacity="1"></stop></linearGradient></defs><defs><linearGradient id="grad2_1" x1="0%" y1="0%" x2="66.7%" y2="100%"><stop offset="20%" stop-color="#213691" stop-opacity="1"></stop><stop offset="80%" stop-color="#3d5af1" stop-opacity="1"></stop></linearGradient></defs><defs><linearGradient id="grad2_2" x1="0%" y1="0%" x2="66.7%" y2="100%"><stop offset="20%" stop-color="#213691" stop-opacity="1"></stop><stop offset="80%" stop-color="#0e153a" stop-opacity="1"></stop></linearGradient></defs><g transform="translate(900, 0)"><path d="M0 513.8C-45 510.9 -90 507.9 -133 496.3C-176 484.6 -217 464.3 -251 434.7C-285 405.2 -311.9 366.5 -326 326C-340 285.4 -341.1 243.1 -366.3 211.5C-391.5 179.9 -440.8 159.2 -469.4 125.8C-498 92.3 -505.9 46.2 -513.8 0L0 0Z" fill="#172564"></path><path d="M0 342.5C-30 340.6 -60 338.6 -88.7 330.9C-117.3 323.1 -144.7 309.5 -167.3 289.8C-190 270.1 -208 244.3 -217.3 217.3C-226.7 190.3 -227.4 162 -244.2 141C-261 120 -293.9 106.2 -313 83.9C-332 61.6 -337.3 30.8 -342.5 0L0 0Z" fill="#2e48c0"></path><path d="M0 171.3C-15 170.3 -30 169.3 -44.3 165.4C-58.7 161.5 -72.3 154.8 -83.7 144.9C-95 135.1 -104 122.2 -108.7 108.7C-113.3 95.1 -113.7 81 -122.1 70.5C-130.5 60 -146.9 53.1 -156.5 41.9C-166 30.8 -168.6 15.4 -171.3 0L0 0Z" fill="#3d5af1"></path></g><g transform="translate(0, 600)"><path d="M0 -513.8C45.2 -511.4 90.3 -508.9 133 -496.3C175.6 -483.6 215.8 -460.7 249.5 -432.1C283.2 -403.6 310.3 -369.3 332.3 -332.3C354.4 -295.4 371.3 -255.7 376.7 -217.5C382.1 -179.3 376.1 -142.4 397 -106.4C417.9 -70.4 465.9 -35.2 513.8 0L0 0Z" fill="#172564"></path><path d="M0 -342.5C30.1 -340.9 60.2 -339.3 88.7 -330.9C117.1 -322.4 143.9 -307.2 166.3 -288.1C188.8 -269 206.9 -246.2 221.6 -221.6C236.2 -196.9 247.5 -170.5 251.1 -145C254.8 -119.5 250.7 -94.9 264.7 -70.9C278.6 -46.9 310.6 -23.5 342.5 0L0 0Z" fill="#2e48c0"></path><path d="M0 -171.3C15.1 -170.5 30.1 -169.6 44.3 -165.4C58.5 -161.2 71.9 -153.6 83.2 -144C94.4 -134.5 103.4 -123.1 110.8 -110.8C118.1 -98.5 123.8 -85.2 125.6 -72.5C127.4 -59.8 125.4 -47.5 132.3 -35.5C139.3 -23.5 155.3 -11.7 171.3 0L0 0Z" fill="#3d5af1"></path></g></svg>
