<?xml version="1.0" standalone="no"?>
<!DOCTYPE svg PUBLIC "-//W3C//DTD SVG 20010904//EN"
 "http://www.w3.org/TR/2001/REC-SVG-20010904/DTD/svg10.dtd">
<svg version="1.0" xmlns="http://www.w3.org/2000/svg"
 width="800.000000pt" height="400.000000pt" viewBox="0 0 800.000000 400.000000"
 preserveAspectRatio="xMidYMid meet">

<g transform="translate(0.000000,400.000000) scale(0.100000,-0.100000)"
fill="#ffffff" stroke="none">
<path d="M815 3599 c-172 -17 -315 -58 -460 -132 -60 -31 -103 -64 -172 -132
-78 -77 -98 -104 -135 -180 l-43 -90 -3 -275 c-3 -308 -6 -295 74 -421 90
-142 201 -240 576 -509 119 -85 217 -157 217 -160 1 -3 -195 -4 -434 -2 l-436
2 3 -372 3 -373 50 -100 c41 -83 63 -114 130 -180 91 -91 156 -133 284 -181
173 -65 372 -94 646 -94 323 0 540 50 712 164 212 140 324 358 353 690 36 408
-91 654 -490 950 -52 39 -189 136 -303 216 l-208 145 492 3 492 2 -6 143 c-15
355 -133 586 -376 731 -219 131 -590 191 -966 155z m285 -710 c9 -14 24 -221
19 -258 -4 -23 -7 -22 -62 29 -77 70 -109 126 -105 182 2 34 8 45 28 56 30 15
109 10 120 -9z m-59 -1326 c84 -88 121 -186 123 -323 1 -67 -3 -92 -17 -113
-17 -26 -22 -28 -75 -25 -56 3 -57 3 -79 48 -22 42 -23 56 -23 257 0 240 -3
234 71 156z"/>
<path d="M6635 3603 c-92 -11 -237 -36 -285 -49 -314 -88 -521 -283 -605 -570
-43 -147 -45 -192 -45 -1035 0 -874 0 -868 56 -1011 49 -126 159 -257 292
-347 217 -146 506 -208 885 -189 335 17 587 96 753 237 86 73 125 121 174 217
72 142 80 202 80 635 l0 379 -515 0 -514 0 -3 -347 c-3 -330 -4 -350 -23 -383
-18 -31 -26 -35 -66 -38 -57 -4 -75 15 -89 91 -7 36 -10 334 -8 856 3 794 3
800 24 828 22 29 64 40 109 29 45 -11 50 -41 55 -365 l5 -304 508 -4 507 -4 0
353 c0 391 -5 426 -68 560 -98 203 -355 370 -670 432 -142 28 -437 44 -557 29z"/>
<path d="M2220 2000 l0 -1580 500 0 500 0 0 1580 0 1580 -500 0 -500 0 0
-1580z"/>
<path d="M3350 2000 l0 -1580 608 0 c773 0 918 10 1113 79 250 89 419 272 488
532 42 159 45 243 34 1104 -10 781 -11 813 -31 889 -35 128 -77 199 -172 296
-99 100 -178 149 -308 190 -197 64 -187 63 -994 67 l-738 4 0 -1581z m1158
899 c17 -6 34 -18 39 -27 12 -26 16 -1708 3 -1732 -12 -22 -67 -40 -122 -40
l-38 0 0 905 0 905 44 0 c23 0 57 -5 74 -11z"/>
</g>
</svg>
